<svg width="128" height="128" viewBox="0 0 2000 2000" fill="none" xmlns="http://www.w3.org/2000/svg">
<path d="M1004.25 578.127L2.6653 1978.27L15.612 1996.25L1004.19 614.312L1984.36 1996.22L1997.37 1978.31L1004.25 578.127Z" fill="#A80000"/>
<path d="M13.516 1998.45L4.76397 1976.09L879.319 1312.62L1539.15 1976.94L1528.43 1997.6L877.953 1342.65L13.516 1998.45Z" fill="#A80000"/>
<path d="M1985.81 1997.88L998.993 1083.82L433.62 1410.51L426.612 1386.97L1001.01 1055.07L1005.06 1058.85L1995.91 1976.66L1985.81 1997.88Z" fill="#A80000"/>
<path d="M1008.5 1064.78L991.501 1074.11L1141.36 1605.39L1158.36 1596.05L1008.5 1064.78Z" fill="#A80000"/>
<path d="M18.28 1974.53H1981.72V25.472H18.28V1974.53ZM2000 2000H0V0H2000V2000Z" fill="#A80000"/>
</svg>
